<?xml version="1.0" encoding="utf-8"?>
<!-- Generator: Adobe Illustrator 24.1.0, SVG Export Plug-In . SVG Version: 6.00 Build 0)  -->
<svg version="1.1" id="Layer_1" xmlns="http://www.w3.org/2000/svg" xmlns:xlink="http://www.w3.org/1999/xlink" x="0px" y="0px"
	 width="520px" height="331px" viewBox="0 0 520 331" style="enable-background:new 0 0 520 331;" xml:space="preserve">
<style type="text/css">
	.st0{fill:#FFFFFF;}
</style>
<g id="UT8Y9C.tif">
	<g>
		<path class="st0" d="M136.8,195.5c0.4-2.7,0.6-5.4,1.1-8.1c1.4-6.6-1.5-6.4-5.9-3.9c-1,0.5-1.9,1.1-2.9,1.6
			C95,200.9,82.4,197.4,60.5,166c-18.6-26.6-19.1-28.3,7.8-47.5c17.6-12.6,37-22.9,56.5-32.3c7.3-3.5,17.4-0.8,26.1-1.9
			c5-0.7,9.8-3.3,14.7-5.2c6.5-2.5,13.2-7.4,18.4,1.8c4.5,7.9,0.3,12.4-5.6,17.9c-5,4.7-9.9,11.9-10.6,18.5
			c-3.7,32.4-6.2,65-8.9,97.5c-1.1,13,7,21.2,19,16.8c18.8-7,36.7-16.4,54.6-25.6c2.5-1.3,4.8-8.3,3.5-10.5
			c-2.1-3.5-7.2-6.9-11.2-7.2c-5.7-0.4-11.6,2.5-17.5,3.1c-2.9,0.3-5.9-1.2-8.9-1.9c1.4-2.6,2.2-6.2,4.3-7.6
			c10.1-6.3,21.8-16.9,32.6-9.8c10.4,6.8,17.2,20,23.5,31.5c1.9,3.4-1.2,12.6-5,15.8c-23.4,19.9-48.4,37.5-79.3,43.9
			c-23.3,4.8-42-11.3-41.2-35.4c0.3-10.8,2.4-21.6,3.6-32.4C137,195.5,136.9,195.5,136.8,195.5z M134,138.5
			c-0.8-7.5-1.7-15.1-2.3-22.6c-0.7-9.7-5.8-12.5-14.1-8.3c-11.6,5.8-23.6,11.4-34.1,18.8c-21.1,14.8-20.9,17.3-4.5,37.9
			c6.4,8.1,13.6,13.9,25,11.4C125.9,170.9,134,160.8,134,138.5z"/>
		<path class="st0" d="M364,65c0,13.6,0.4,27.3-0.1,40.9c-0.5,15.6-8,26.7-22.9,32.7c-29.7,11.9-60.3,18.9-92.3,20.1
			c-17.3,0.6-30.6-7-36.9-22.2c-9.6-23.1-17.1-47.1-24.5-71.1c-1.1-3.6,2.3-11.2,5.8-13.3c48.2-28.6,98.6-49,156.5-43.2
			c11.2,1.1,15.3,6,15,16.7c-0.4,13.1-0.1,26.2-0.1,39.3C364.3,65,364.2,65,364,65z M330.1,71.1c0,0,0.1,0,0.1,0
			c0-6.5,0.1-13.1,0-19.6c-0.2-16.4-2.5-19.8-18.5-19.6c-34,0.3-65.3,10.7-93.9,28.7c-3.4,2.1-6.4,9.4-5.4,13.1
			c3.9,14.6,9.2,28.9,14.7,43.1c4.2,11,13,16,24.6,14.7c15.1-1.7,30.5-2.6,45-6.5c31.2-8.3,33.2-11.9,33.4-44.2
			C330.1,77.6,330.1,74.4,330.1,71.1z"/>
		<path class="st0" d="M378.7,194.3c20.7,0.3,25.1,6,19.3,26.6c-12.9,45.5-45.1,73.3-86.3,92.2c-10.8,5-22.5,8.2-34.1,11.1
			c-3.7,0.9-8.4-1.9-12.6-3c3.1-2.6,5.8-5.7,9.2-7.5c13.4-7.1,27.9-12.5,40.5-20.8c29.8-19.8,45.9-48.6,51.1-83.8
			C367.8,195.9,369.8,194.1,378.7,194.3z"/>
		<path class="st0" d="M396.7,19.8c30.2,4,63.5,5.3,92,23.6c10.1,6.5,17.8,17,25.9,26.2c1.4,1.6-0.1,5.8-0.3,8.8
			c-2.5-0.5-5.7-0.3-7.4-1.7c-28.1-23.3-62.5-22.9-96-25.9c-5.4-0.5-10.9,0-16.3-0.1c-16.2-0.2-18.9-2.7-18.3-17.2
			C376.8,21.1,379.3,19.2,396.7,19.8z"/>
		<path class="st0" d="M4.8,132.6c4.9-4.6,10.5-9.8,16.2-15.1c3.4,4.2,7.9,7.9,10.1,12.7c15.2,32.4,32.2,63,66.1,80
			c2.3,1.2,3.5,4.6,5.2,7c-2.8,1.3-5.8,3.9-8.2,3.5c-8.4-1.4-17.4-2.5-24.9-6.3c-30-15.3-48.7-40.8-61.3-71.2
			C6.9,140.7,6.4,138,4.8,132.6z"/>
		<path class="st0" d="M487.3,106.6c-8.6-0.7-13.7-6.2-13.2-15.8c0.4-8.8,5.9-14.4,14.6-14.4c9.4,0,15,5.9,15.7,15.3
			C505,100,497.3,106.8,487.3,106.6z"/>
	</g>
</g>
</svg>
