<?xml version="1.0" encoding="utf-8"?>
<!-- Generator: Adobe Illustrator 24.1.0, SVG Export Plug-In . SVG Version: 6.00 Build 0)  -->
<svg version="1.1" id="Layer_1" xmlns="http://www.w3.org/2000/svg" xmlns:xlink="http://www.w3.org/1999/xlink" x="0px" y="0px"
	 width="465px" height="476px" viewBox="0 0 465 476" style="enable-background:new 0 0 465 476;" xml:space="preserve">
<style type="text/css">
	.st0{fill:#F6F6F6;}
</style>
<path class="st0" d="M414.8,127.1c21.2-7.6,34.3-22.6,41.1-41.6c6.7-18.5,2.2-36.4-10.8-51.8c-11.5-13.5-27.7-17.6-45.8-17.2
	c-22.2,0.5-38.4,9.8-46.8,28.6c-4.6,10.3-7,21.5-10.5,32.2c-1.1,3.4-2.1,7-4,10c-3.3,5.5-7.5,5.6-11.6,0.6c-0.8-0.9-1.5-1.9-2.4-2.9
	c-3,6.7,0.5,14.1,7.6,16.6c3.2,1.1,5.6,0.4,8.5-1.5c3.5-2.4,7.8-4.5,12.1-5.5c5.8-1.4,10.3,1.6,11.8,6.5c2.1,7.1-2,12.2-10.6,12.8
	c-3.4,0.2-6.9,0-10.6,0c8,7.8,23.4,8.9,30.8,2.4c3.9-3.4,5.6-7.8,5.7-12.7c0.2-8.3-5.1-13.7-11.7-18.4c5-5,14.6-4.7,21.1,0.5
	c10.3,8.3,11,16.2,2.4,28.7c4.7-2,9.4-4,13.6-6.7c4.6-3,6.6-7.4,6.1-12.6c-0.7-7.4-5.2-12.5-11.4-16.7c-1.8-1.2-3.6-2.2-6.2-3.8
	c13.4,1.2,19.5-1,23-7.7c2.8-5.4,1.2-12.3-3.4-16.6c-0.5,1.9-0.4,4.4-1.6,6.2c-4.1,6.7-16.4,7.2-21.1,0.8
	c-4.4-6.1-5.5-12.7-1.2-19.2c4.5-6.8,12.1-7.9,19.9-7.4c13.1,1,20.4,8.6,24.8,19.1c4,9.5,4.3,19.5,4.3,29.6c0,9.5-4,16.9-11.9,22.9
	c-10,7.7-21.4,12.9-33.3,17.4c-16.5,6.4-33.4,12-49.8,18.7c-17.8,7.3-31,19.1-35.6,37.1c-4.1,16-2.2,31.9,4.3,47
	c2.4,5.6,6.9,10.9,11.8,14.9c13.5,10.8,30.4,13.4,47.6,14.2c12.5,0.6,25.1,0.1,37.7,0.2c10.1,0.1,16.2,5.3,16.8,14.1
	c0.8,13.4-10.4,25.8-24.9,27.7c-15.4,2-30.7,0.5-46-1.1c-3.8-0.4-5.4-2.1-7.2-4.8c-5-7.9-9.7-16.1-15.9-23.2
	c-5.9-6.6-12.5-12.6-15.7-20.9c-0.4-0.1-0.8-0.1-1.2-0.2c-2,4.5-4,9.1-6.7,15.1c-0.7-1.2-1.2-2.4-2-3.4c-5.2-6-10.7-11.8-15.6-18
	c-7.4-9.5-13.1-19.9-14.9-31.7c-0.4-2.7-1.4-5.3-2.1-8c-0.5-1.8-2-4.1-1.3-5.3c0.9-1.5,3.6-2.3,5.7-2.7c1.6-0.4,3.5,0.1,5.1,0.5
	c5.8,1.4,8.2,5.4,9.2,10.6c5.8-13.7,8.5-27.6,6-42.2c-0.2-1.4-1.6-2.9-3-3.7c-2.9-1.6-4.9-3.5-4.3-6.8c0.6-3.6,3.9-7,7.4-6.7
	c3.2,0.2,6.4,1.6,10.2,2.6c7.3-12.1-1-20.7-10.6-28.9c4.3-3.2,7.2-0.2,10.4,1.6c0.8-4.4-3.5-5.6-5.5-8.3c1.4,0,2.4,0,3.6,0
	c-0.5-3.2-1.3-6.3-1.3-9.3c-0.1-6.5,0.1-13.1,0.4-19.6c0.1-2.2,1.3-3.2,4.1-2.4c2,0.5,4.4,0.1,6.6,0.1c-1.9-3.7-3.4-6.8-5.3-10.7
	c13.5,4,18.3,3.3,22.8-2.6c-5.7-2.2-8.3-7-10.9-11.5c-5.7-9.9-12.4-18.8-23.5-24.2c2-10.5,1.5-17.5-1.8-24.4
	c-3.5,7.3-10.4,10.2-18,11.4c-7.5,1.3-15.2,2-22.9,2.2c-8.6,0.2-15.9,2.4-21.6,8.5c-1.1,1.2-2.5,2.3-3.6,3.5
	c-7.7,8.1-17.7,9.7-28.7,8.5c-1.8-0.2-3.6-0.4-5.4-0.6c-2.8,14.3-0.1,24,9.5,35c1.6,1.8,2.6,3.9,4.1,6.2c-6.3,1.9-12,3.9-17.8,5.3
	c-6.5,1.5-13.1,2.9-19.8,3.4c-7.5,0.5-9.9-2.5-9-9.3c0.5-3.9,0.8-7.9,0.6-11.8c-0.5-9.8-6.2-16.7-15.2-21.3
	c-3.4-1.8-7.1-1.9-11.5-0.4c1.2,0.5,1.9,0.8,2.6,1.1c5.9,2.5,7.7,6,5.8,11.7c-0.7,2.1-1.8,4.1-2.9,6.1c-5.2,9.2-3.6,21.1,3.8,29.2
	c7.1,7.7,17,10.1,28.7,6.4c7.9-2.5,15.5-5.7,23.3-8.5c2.8-1,5.7-1.9,9.3-3.1c0,5.1,0.2,9.4-0.1,13.6c-0.1,0.9-1.6,2.1-2.7,2.4
	c-4.6,1.4-6.4,4.6-7.4,8.5c-4.5,17.2-12.2,21.3-28.7,23.7c-14.7,2.1-19.2-1.3-22-14.6c-0.9-4-1.5-8.1-2.2-12.2
	c-0.4-0.1-0.7-0.1-1.1-0.2c-1.2,3.3-2.3,6.5-3.5,9.8c-0.2-0.2-0.5-0.3-0.6-0.5c-0.5-1-1-2-1.5-3c-7-14.5-14.1-28.9-25.5-41.2
	c-7.1-7.6-7-8.8-0.6-17c0.1-0.1,0.1-0.2,0.2-0.3c9.2-9.8,8-28,0.8-37.7c-2.5-3.4-5.4-6.3-10.5-7.9c0.6,1.7,1.1,2.7,1.4,3.9
	c1,3.3,2.2,6.6,2.7,10c0.4,2.5,0.8,5.6-2.6,6.7c-3.4,1.1-6.1,0-8.6-2.6c-2.6-2.8-5.7-5.2-8.7-7.7c-9.5-7.8-24.5-4.3-34.5,4.4
	c1.7-0.2,3-0.6,4.3-0.6c4.5,0.3,9.2,0.3,13.5,1.4c4.1,1.1,6.6,6.4,5.7,10.1c-0.8,3.6-4,5.9-9.2,5.7c-3.7-0.2-7.6-0.8-10.9-2.3
	c-8.4-3.8-19.5,2.1-20,11.1c2.4-0.9,4.8-2.1,7.4-2.7c5-1.2,10.7,2.1,12.5,6.7c1.3,3.3-0.2,5.5-5.7,8.2c-2.4,1.2-4.9,2.1-7.2,3.3
	c-2.3,1.2-4.7,2.5-6.7,4.1c-6.5,5.3-7.5,16.2-2,20.7c0.8-7.2,3.1-10,9-11c5.9-1,11.5,1.4,14.3,6.3c3,5.1,2.2,8.3-3.7,13.7
	c0.8,0.5,1.6,1,2.2,1.6c6.4,5.8,6.4,7.9-0.1,13.4c-6,5.1-5.4,17.5,1.4,22.4c0-1,0-1.8,0-2.7c0.1-5.8,3.4-8.5,9.7-7.1
	c6.4,1.4,10.9,5.2,12.4,11c0.9,3.5,0.2,7.4,0.2,11.9c10.9,8.5,11.9,10.8,6.6,19.8c4.4,0.9,8.6,2.8,12.5,2.4
	c5.7-0.5,8.6,1.7,11.3,5.6c2.7,3.9,2.2,9.6-1.7,12.8c-2.6,2.2-2.3,4.4,1.1,5.2c3.2,0.7,6.6,0.7,10,0.7c2.7-0.1,3.7,0.7,2.7,3
	c-3.5,8.1-6.6,16.5-17.5,21.1c3.6,1.8,6.3,3.1,9.2,4.5c-3.9,5.8-7.7,11.7-11.9,17.5c-8.8,12-17.7,24-26.8,35.8
	c-2.6,3.4-6.7,5.3-11.4,3.9c-4.5-1.4-5.4-5.1-5.7-9c-0.3-4.8-2.7-8.4-7.1-11.1c-7-4.2-22.5-3.2-28.8,1.3c9.1,11.7,7.3,19.1-6.3,26.2
	c-0.1,0.1-0.2,0.1-0.3,0.2c-16.3,7.2-11.7,23-3,30.9c1.8-4.5,3.1-9.8,5.9-14.3c3.3-5.2,11.1-4.3,14.1,1.1c0.8,1.5,1.3,3.3,1.6,4.9
	c0.9,4.1,1.2,8.4,2.4,12.4c2.4,7.4,11.1,13.2,18.2,12.8c-2.4-2.6-5.1-5.2-7.2-8.2c-2.4-3.5-1.6-6.6,1.6-9.3
	c6.3-5.3,15.2-5.4,21.2,0.1c3,2.7,5.4,6.1,7.7,8.8c1.5-4.6,2.8-9.7,4.9-14.4c5.7-12.8,15.5-16.5,29.6-11.7c4.3,1.5,7.7,3.5,7.7,9
	c12.5-14,23.5-27.7,25-46.3c2.8,1.4,5.7,2.6,6.9,4.7c1.4,2.3,1.2,5.3,1.8,8.3c12.9-6.6,18.5-16.9,18.7-30.9
	c13.5,11,28.8,16.7,44.7,21.6c-2.3,0.8-4.4,1.1-6.5,1.4c-11.8,1.6-23.3,4.3-33.7,9.9c-11.3,6-19.3,14.3-21.4,26.5
	c-2.8,15.6,3.5,29.4,10.7,43.1c4.9-5.7,6-5.9,12.8-2c1,0.6,2.2,0.8,3.3,1c7.6,0.9,12.4,5.4,12,12.5c-0.2,3.8-1.4,7.8-3.1,11.4
	c-5.1,10.7-12.3,20.1-23.3,26.5c-7.6,4.4-12.8,3.7-19.4-1.7c-4-3.3-8.1-6.6-12.7-9.2c-10-5.8-25.8-4.5-33.8,1.8
	c5.5,1,11.7,1.6,17.5,3.3c5.3,1.6,7.1,6,5.7,10.9c-1.1,4-4.5,5.8-10.2,5.3c-5.2-0.5-10.4-1.4-15.6-1.8c-7.9-0.7-14.7,3-17.8,9.7
	c-3,6.4-1.2,14.3,4.3,18.9c2.8-19,17.3-19.3,29.4-11.6c-3.9,16,4.9,26.8,22.8,27.7c-0.9-1.3-1.8-2.6-2.5-3.9
	c-4.3-7.6-1.4-12.5,7.8-12.7c5.2-0.1,10.5,0.2,15.7,1c23.2,3.5,42.8-1.7,57.6-19.2c1.9-2.2,4.2-2.4,5.7-0.6c2,2.4,3.1,5.4,4.5,8.1
	c11.4-9.5,16.4-21.9,14.5-36.9c5.8-0.2,5.4,4.2,7.1,7.3c8.7-7.9,9.2-17.6,8.7-27.4c7.4,4.2,14.3,8.1,21.1,11.9
	c-3-7.7-1.3-12,4.3-13.6c6,3.7,10.9,8,16.7,10.1c7.7,2.8,16,4.1,24.2,5.6c7.9,1.5,14.5,4.5,17.3,11.8c3,7.7,1.5,15-4.4,21.1
	c-1.8,1.9-4.8,3.5-7.5,3.9c-14.9,2.5-23.7-1-27.2-13.6c-0.1-0.2-0.2-0.4-0.3-0.7c-1.4-3.7-4.5-5.2-8.5-5
	c-9.4,0.3-20.1,10.8-20.1,19.4c1.7-1.1,3.4-2.4,5.3-3.3c3.6-1.6,7.5-0.7,10.2,2.2c2.6,2.8,0.9,5.3-0.9,7.7c-1.2,1.5-2.5,2.9-3.8,4.3
	c-4.5,5.1-9.3,10-13.3,15.4c-4.5,6.1-6.4,12.9-5,20.9c0.9-1.2,1.5-1.9,2-2.7c5.1-6.8,10.7-13.1,18.6-17.4c7.2-3.9,14.4-3.8,20,0.2
	c-3,10.9,1.2,18.6,10.6,20.5c1.1-5,1.6-10.3,3.5-15.1c2.6-6.7,9.4-8.5,16.4-5.8c4.8,1.8,9.9,3.4,15,4.1c7.7,1,15.2,0,22-4
	c-5.1-11.2-2.5-16.8,9.8-21.3c1.9-0.7,3.9-1.4,5.8-2.1c-5-15.1-3.9-17.7,9.1-22c-8.1-14.5-8.1-14.5,1.7-24.8
	c-10.3-5.6-13.5-14.2-11.7-24.9c-1.3,0.1-2.1,0.1-2.8,0.3c-14.9,3.1-27.7-1-38.9-10.1c-4.5-3.7-8.5-8-13.1-11.6
	c-3.1-2.4-4-5.4-4.4-8.8c-0.4-4.5,2.6-9.1,7-10.8c4.3-1.7,9.1-0.8,12.5,2.8c1.7,1.8,3.1,4,4.1,6.3c4.2,9.7,12.3,15.2,23.1,18.4
	c-3.9-6.6-3.3-11,1.8-15.1c6.5,7,24.3,12.9,36.7,12c-2.1-1.4-4.2-2.6-5.9-4.1c-5.7-4.8-9.1-10.4-7.5-17.8c0.7-3.4,2.4-6.5,6.3-7.5
	c3.9-1,6.3,1.4,8.6,3.8c4.1,4.3,8.9,7.6,15,9c2.7,0.6,5.5,0.6,8.3,0.9c-1.1-1.9-2.3-2.8-3.5-3.8c-6.8-5.6-6.9-10.3-0.8-16.5
	c2.1-2.2,3.9-4.7,5.2-7.4c5.1-10.6,6.6-21.9,5.5-33.4c-0.6-6.5-2.9-12.1-10.5-15c-4.8-1.9-6.1-6.2-4-10.3c0.8-1.5,2.4-2.9,4-3.8
	c0.5-0.2,2.3,1.8,3.5,2.8c4.7-4.3,8.6-17.2,7.4-25.4c-5.9,10.9-15.6,17.6-27.4,22.2c-9.8,3.8-20.1,5.6-30.7,5.9
	c-14.4,0.3-28.7,0-42.2-5.3c-5.1-2-9.8-4.6-13.6-9c0.6-0.4,1-0.7,1.5-1c0.9-0.5,1.8-1.1,2.7-1.6c9.1-4.7,19-7.4,29.4-7.4
	c12.7-0.1,23.4-2.4,32.6-11.6c7.3-7.4,17.3-12,29-12.5c5.8-0.3,10.9-3,16-6.7c-11.2,0-21.8-0.3-32.4,0.1c-6.2,0.2-11.5,2.7-16.2,6.8
	c-3.5,3.1-7.7,6.1-12.2,7.4c-6.4,1.9-13.4,2.7-20.2,3.3c-10.2,0.8-20.5,0.2-30.4,3.6c-0.3,0.1-0.7-0.2-1.4-0.4
	c1.3-1,2.3-1.8,3.4-2.5c10.9-6.4,23-9.2,35.8-9.1c10.8,0.1,19.3-2.7,27-10c8.3-7.9,18.6-13.3,31.3-14c5.7-0.3,10.7-3,15.8-6.9
	c-10,0-19.1-0.2-28.1,0.1c-8.7,0.2-16.7,2.2-22.6,9c-2,2.3-5.3,4.1-8.4,4.9c-5.9,1.7-12,3-18.1,3.7c-8.2,0.9-16.4,0.8-24.6,1.6
	c-4.3,0.4-8.5,1.9-12.8,2.8c1.1-1.7,2.4-3,4-4c11.3-6.9,24-9.6,37.3-9.6c10,0,18.1-2.5,25.3-9.3c8.6-8.2,19.1-13.9,32.3-14.7
	c5.7-0.3,10.7-3,15.7-6.9c-9.5,0-18.2-0.2-26.8,0.1c-7.8,0.3-15.9,0.8-21.5,6.9c-4.8,5.2-10.9,8.3-18,9.2
	c-12.5,1.5-25.2,2.3-37.7,3.5c-0.2-0.5-0.3-1.1-0.5-1.6c8-3.2,15.9-6.6,24-9.5C380.7,138.8,397.8,133.1,414.8,127.1z M213.9,77.7
	c-0.9-5.2,0.6-7.6,5.3-8.5c9-1.7,12.7,0.1,14.6,7.3C227.2,76.9,220.7,77.3,213.9,77.7z M231.7,91.9c-1.2,3.2-3.8,3.4-6.5,2.4
	c-4.3-1.6-6.9-4.6-7.2-9.9c6-0.3,11.5-0.5,17-0.8C233.7,86.7,232.7,89.3,231.7,91.9z M249.9,76.5c-0.2,0.7-3.2,1-4.8,1
	c-5.7-0.1-5.7-0.3-5.6-6.2c0-0.3,0.1-1.7,0.5-3c0.6-2.5,1.9-5.4,5-4.8c2.3,0.5,5.1,2.8,5.8,4.8C251.5,70.7,250.7,73.9,249.9,76.5z
	 M253.8,43.3c-1.4,0.5-2.9,0.5-4.2,0.2c-0.5,0.1-0.9,0.1-1.4,0.1c-4.5,0-8.2-2.8-8.2-6.2c0-3.4,4.1-4.5,8.2-6.2
	c6.1-2.5,9.1-1,8.5,4.5c0.4,0.4,0.7,0.8,0.9,1.3C258.6,39.5,256.9,42.3,253.8,43.3z"/>
</svg>
